<?xml version="1.0" encoding="UTF-8" standalone="no"?>
<!-- Created with Inkscape (http://www.inkscape.org/) -->

<svg
   xmlns:dc="http://purl.org/dc/elements/1.1/"
   xmlns:cc="http://creativecommons.org/ns#"
   xmlns:rdf="http://www.w3.org/1999/02/22-rdf-syntax-ns#"
   xmlns:svg="http://www.w3.org/2000/svg"
   xmlns="http://www.w3.org/2000/svg"
   xmlns:sodipodi="http://sodipodi.sourceforge.net/DTD/sodipodi-0.dtd"
   xmlns:inkscape="http://www.inkscape.org/namespaces/inkscape"
   width="21.003031mm"
   height="14.314847mm"
   viewBox="0 0 21.00303 14.314847"
   version="1.1"
   id="svg8"
   sodipodi:docname="pmird_icon.svg"
   inkscape:version="0.92.3 (2405546, 2018-03-11)"
   inkscape:export-filename="G:\phd\pmird\analysis\figures\pmird_icon.png"
   inkscape:export-xdpi="299.95541"
   inkscape:export-ydpi="299.95541">
  <defs
     id="defs2">
    <clipPath
       id="clipPath855"
       clipPathUnits="userSpaceOnUse">
      <path
         inkscape:connector-curvature="0"
         id="path853"
         d="M 0,0 H 324 V 216 H 0 Z" />
    </clipPath>
    <clipPath
       id="clipPath867"
       clipPathUnits="userSpaceOnUse">
      <path
         inkscape:connector-curvature="0"
         id="path865"
         d="M 40.98,37.38 H 318.52 V 210.52 H 40.98 Z" />
    </clipPath>
  </defs>
  <sodipodi:namedview
     id="base"
     pagecolor="#ffffff"
     bordercolor="#666666"
     borderopacity="1.0"
     inkscape:pageopacity="0.0"
     inkscape:pageshadow="2"
     inkscape:zoom="2.8"
     inkscape:cx="-53.2242"
     inkscape:cy="53.901755"
     inkscape:document-units="mm"
     inkscape:current-layer="layer1"
     showgrid="false"
     inkscape:window-width="1920"
     inkscape:window-height="1001"
     inkscape:window-x="-9"
     inkscape:window-y="-9"
     inkscape:window-maximized="1"
     inkscape:object-paths="false"
     inkscape:snap-bbox="false"
     inkscape:snap-smooth-nodes="true"
     fit-margin-top="0"
     fit-margin-left="0"
     fit-margin-right="0"
     fit-margin-bottom="0" />
  <metadata
     id="metadata5">
    <rdf:RDF>
      <cc:Work
         rdf:about="">
        <dc:format>image/svg+xml</dc:format>
        <dc:type
           rdf:resource="http://purl.org/dc/dcmitype/StillImage" />
        <dc:title></dc:title>
      </cc:Work>
    </rdf:RDF>
  </metadata>
  <g
     inkscape:label="Layer 1"
     inkscape:groupmode="layer"
     id="layer1"
     transform="translate(-67.375301,-19.979531)">
    <g
       id="g829"
       transform="matrix(0.35277777,0,0,-0.35277777,79.825635,87.474782)" />
    <g
       id="g831"
       transform="matrix(0.35277777,0,0,-0.35277777,79.825635,87.474782)" />
    <g
       id="g833"
       transform="matrix(0.35277777,0,0,-0.35277777,79.825635,87.474782)" />
    <g
       id="g835"
       transform="matrix(0.35277777,0,0,-0.35277777,79.825635,87.474782)" />
    <g
       id="g837"
       transform="matrix(0.35277777,0,0,-0.35277777,79.825635,87.474782)" />
    <g
       id="g839"
       transform="matrix(0.35277777,0,0,-0.35277777,79.825635,87.474782)" />
    <g
       id="g841"
       transform="matrix(0.35277777,0,0,-0.35277777,79.825635,87.474782)" />
    <g
       id="g843"
       transform="matrix(0.35277777,0,0,-0.35277777,79.825635,87.474782)" />
    <g
       id="g845"
       transform="matrix(0.35277777,0,0,-0.35277777,79.825635,87.474782)" />
    <g
       id="g847"
       transform="matrix(0.35277777,0,0,-0.35277777,79.825635,87.474782)" />
    <g
       id="g859"
       transform="matrix(0.35277777,0,0,-0.35277777,79.825635,87.474782)" />
    <g
       id="g873"
       transform="matrix(0.35277777,0,0,-0.35277777,79.825635,87.474782)" />
    <g
       id="g875"
       transform="matrix(0.35277777,0,0,-0.35277777,79.825635,87.474782)" />
    <g
       id="g877"
       transform="matrix(0.35277777,0,0,-0.35277777,79.825635,87.474782)" />
    <g
       id="g879"
       transform="matrix(0.35277777,0,0,-0.35277777,79.825635,87.474782)" />
    <g
       id="g881"
       transform="matrix(0.35277777,0,0,-0.35277777,79.825635,87.474782)" />
    <g
       id="g883"
       transform="matrix(0.35277777,0,0,-0.35277777,79.825635,87.474782)" />
    <g
       id="g885"
       transform="matrix(0.35277777,0,0,-0.35277777,79.825635,87.474782)" />
    <g
       id="g887"
       transform="matrix(0.35277777,0,0,-0.35277777,79.825635,87.474782)" />
    <g
       id="g889"
       transform="matrix(0.35277777,0,0,-0.35277777,79.825635,87.474782)" />
    <g
       id="g891"
       transform="matrix(0.35277777,0,0,-0.35277777,79.825635,87.474782)" />
    <g
       id="g893"
       transform="matrix(0.35277777,0,0,-0.35277777,79.825635,87.474782)" />
    <g
       id="g895"
       transform="matrix(0.35277777,0,0,-0.35277777,79.825635,87.474782)" />
    <g
       id="g901"
       transform="matrix(0.35277777,0,0,-0.35277777,79.825635,87.474782)" />
    <g
       id="g903"
       transform="matrix(0.35277777,0,0,-0.35277777,79.825635,87.474782)" />
    <g
       id="g923"
       transform="matrix(0.35277777,0,0,-0.35277777,79.825635,87.474782)" />
    <g
       id="g935"
       transform="matrix(0.35277777,0,0,-0.35277777,79.825635,87.474782)" />
    <g
       id="g937"
       transform="matrix(0.35277777,0,0,-0.35277777,79.825635,87.474782)" />
    <g
       id="g939"
       transform="matrix(0.35277777,0,0,-0.35277777,79.825635,87.474782)" />
    <g
       id="g941"
       transform="matrix(0.35277777,0,0,-0.35277777,79.825635,87.474782)" />
    <g
       id="g943"
       transform="matrix(0.35277777,0,0,-0.35277777,79.825635,87.474782)" />
    <g
       id="g945"
       transform="matrix(0.35277777,0,0,-0.35277777,79.825635,87.474782)" />
    <g
       id="g951"
       transform="matrix(0.35277777,0,0,-0.35277777,79.825635,87.474782)" />
    <g
       id="g953"
       transform="matrix(0.35277777,0,0,-0.35277777,79.825635,87.474782)" />
    <g
       id="g965"
       transform="matrix(0.35277777,0,0,-0.35277777,79.825635,87.474782)" />
    <g
       id="g985"
       transform="matrix(0.35277777,0,0,-0.35277777,79.825635,87.474782)" />
    <g
       id="g987"
       transform="matrix(0.35277777,0,0,-0.35277777,79.825635,87.474782)" />
    <g
       id="g989"
       transform="matrix(0.35277777,0,0,-0.35277777,79.825635,87.474782)" />
    <g
       id="g991"
       transform="matrix(0.35277777,0,0,-0.35277777,79.825635,87.474782)" />
    <g
       id="g993"
       transform="matrix(0.35277777,0,0,-0.35277777,79.825635,87.474782)" />
    <g
       id="g1021"
       transform="matrix(0.35277777,0,0,-0.35277777,79.825635,87.474782)" />
    <g
       id="g1029"
       transform="matrix(0.35277777,0,0,-0.35277777,79.825635,87.474782)" />
    <g
       id="g1031"
       transform="matrix(0.35277777,0,0,-0.35277777,79.825635,87.474782)" />
    <g
       id="g1033"
       transform="matrix(0.35277777,0,0,-0.35277777,79.825635,87.474782)" />
    <g
       id="g1035"
       transform="matrix(0.35277777,0,0,-0.35277777,79.825635,87.474782)" />
    <g
       id="g1037"
       transform="matrix(0.35277777,0,0,-0.35277777,79.825635,87.474782)" />
    <g
       id="g1039"
       transform="matrix(0.35277777,0,0,-0.35277777,79.825635,87.474782)" />
    <g
       id="g1041"
       transform="matrix(0.35277777,0,0,-0.35277777,79.825635,87.474782)" />
    <g
       id="g1043"
       transform="matrix(0.35277777,0,0,-0.35277777,79.825635,87.474782)" />
    <g
       id="g1045"
       transform="matrix(0.35277777,0,0,-0.35277777,79.825635,87.474782)" />
    <g
       id="g1047"
       transform="matrix(0.35277777,0,0,-0.35277777,79.825635,87.474782)" />
    <g
       id="g1049"
       transform="matrix(0.35277777,0,0,-0.35277777,79.825635,87.474782)" />
    <g
       id="g1051"
       transform="matrix(0.35277777,0,0,-0.35277777,79.825635,87.474782)" />
    <path
       inkscape:export-ydpi="149.97771"
       inkscape:export-xdpi="149.97771"
       sodipodi:nodetypes="cssccccccccccccccccccccccccccccccccccccccccccccsc"
       inkscape:connector-curvature="0"
       id="path871"
       d="m 67.628861,33.840055 c 0,0 0.818885,0.01647 0.932649,-0.03334 0.209741,-0.09188 0.340741,-0.283122 0.405678,-0.45787 0.135372,-0.364293 0.391594,-0.940047 0.395045,-1.327824 0.240662,-2.207983 0.333521,-4.428931 0.532173,-6.639726 0.123167,-0.598371 0.324354,0.779039 0.320433,1.070861 0.03897,0.359099 0.01456,1.249387 0.152666,1.219926 0.244026,0.198614 0.08558,1.443722 0.266266,2.004318 0.251237,-0.01027 0.208929,1.467319 0.366498,0.57809 0.08637,-0.527325 0.14365,-1.537413 0.400534,-1.697154 0.06717,0.411363 0.309319,1.045079 0.337746,0.264287 0.04916,-0.353268 0.01799,-1.347357 0.122751,-1.288877 0.08649,0.471695 -0.02355,1.784695 0.23729,1.690155 0.141921,-1.120825 0.212478,0.385864 0.281983,0.782672 0.303607,0.278116 0.180879,-1.050748 0.286452,-1.422068 0.126599,0.169929 0.133924,1.382353 0.174831,1.96045 0.04376,0.40096 0.02341,1.600013 0.159263,1.457169 0.110293,-0.794113 0.04657,-1.604948 0.197721,-2.393664 0.130837,-0.632478 0.288241,0.439004 0.31842,-0.179885 0.205059,-2.045557 0.107357,-4.112637 0.30016,-6.155467 0.136506,0.868969 0.137434,1.828683 0.248723,2.731385 0.160031,1.262895 0.05051,2.55645 0.323036,3.802507 0.457078,0.417516 0.216035,1.552596 0.378097,2.391353 0.222122,0.448991 -0.05611,1.633164 0.435649,1.652648 0.184078,-0.216553 0.948531,-0.776386 0.506599,-0.620071 0.03701,-0.537958 0.218861,0.194374 0.144915,-0.260604 0.147953,0.405966 0.129978,-0.463906 0.344215,0.02332 0.28326,-0.309947 0.242063,-0.535679 0.582986,-0.580626 0.132149,-0.06171 0.278175,0.340663 0.330732,-0.187241 -0.06454,-0.371312 0.267798,-0.178029 0.176431,-0.20968 0.238781,0.208287 0.307024,-0.391767 0.872438,-0.329541 0.09915,0.198755 0.17439,-0.135847 0.314501,-0.009 0.09712,-0.252056 0.110627,-0.08655 0.126628,-0.09246 0.04615,0.455334 0.474514,-0.561008 0.866991,-0.706716 0.314702,-0.587932 0.853537,-0.784849 1.311444,-1.191941 0.472754,-0.518911 0.68103,-1.201603 0.749013,-1.894176 0.177401,-0.89244 0.08877,-2.350788 0.249459,-2.906043 0.314048,0.345846 0.239601,-0.939172 0.307878,-1.243583 0.03808,-0.651754 0.04754,-1.30586 0.124339,-1.954813 0.117536,1.56567 0.292515,3.124602 0.414007,4.689507 -0.0413,0.443981 0.247722,0.749279 0.308957,0.146897 0.1576,-0.815136 0.633061,-1.519647 0.713094,-2.356238 0.243095,-1.161147 0.444592,-2.333177 0.767742,-3.474823 0.132596,-0.922658 0.736428,-0.284169 0.773102,0.343475 0.461626,1.406938 0.530668,2.892252 0.742102,4.347542 0.252079,2.057686 0.456227,4.123976 0.795622,6.168912 0.06269,0.546897 0.240553,1.09305 0.371813,1.426443 0.134117,0.234907 0.0081,0.236989 0.423409,0.750242 0.199907,0.24705 0.233601,0.260247 0.603467,0.315051"
       style="fill:none;stroke:#000000;stroke-width:0.5;stroke-linecap:round;stroke-linejoin:round;stroke-miterlimit:10;stroke-dasharray:none;stroke-opacity:1" />
  </g>
</svg>
